<svg xmlns="http://www.w3.org/2000/svg" version="1.1" xmlns:xlink="http://www.w3.org/1999/xlink" width="24" height="24" x="0" y="0" viewBox="0 0 512 512" style="enable-background:new 0 0 512 512" xml:space="preserve" class=""><g transform="matrix(1.8369701987210297e-16,1,1,-1.8369701987210297e-16,-1.1368683772161603e-13,0)"><linearGradient id="b" x1="74.98" x2="437.02" y1="74.98" y2="437.02" gradientUnits="userSpaceOnUse"><stop stop-opacity="1" stop-color="#ffcc78" offset="0"></stop><stop stop-opacity="1" stop-color="#ff6f00" offset="1"></stop></linearGradient><linearGradient id="a" x1="108.93" x2="374.8" y1="228.15" y2="494.01" gradientUnits="userSpaceOnUse"><stop offset="0" stop-color="#d69f4d"></stop><stop offset="1" stop-color="#d69f4d" stop-opacity="0"></stop></linearGradient><linearGradient xlink:href="#a" id="c" x1="228.24" x2="437.4" y1="227.48" y2="436.63"></linearGradient><linearGradient xlink:href="#a" id="d" x1="347.05" x2="494.18" y1="227.25" y2="374.37"></linearGradient><g data-name="Layer 2"><g data-name="Layer copy 7"><g data-name="95"><circle cx="256" cy="256" r="256" fill="url(#b)" opacity="1" data-original="url(#b)" class=""></circle><path fill="url(#a)" d="M403.66 465.15a254.93 254.93 0 0 1-78.15 37.3L108.32 285.26l-7.32-18.8v-20.92l8.36-17.82 17.5-8h20.91l15.95 5.53z" opacity="1" data-original="url(#a)" class=""></path><path fill="url(#a)" d="M463.44 406a257.63 257.63 0 0 1-56.51 56.76L224.63 280.5l-4.95-14v-20.96l8.64-18.14 17.22-7.72h20.92l19.35 8.73z" opacity="1" data-original="url(#a)" class=""></path><path fill="url(#a)" d="M502.39 325.71a254.87 254.87 0 0 1-36.65 77.1L345.4 282.47l-7-16v-20.93l8.21-17.82 17.65-8h20.91l17.5 6.28z" opacity="1" data-original="url(#a)" class=""></path><g fill="#fff"><rect width="72.63" height="72.63" x="219.68" y="219.68" rx="25.86" fill="#ffffff" opacity="1" data-original="#ffffff"></rect><rect width="72.63" height="72.63" x="338.37" y="219.68" rx="25.86" fill="#ffffff" opacity="1" data-original="#ffffff"></rect><rect width="72.63" height="72.63" x="101" y="219.68" rx="25.86" fill="#ffffff" opacity="1" data-original="#ffffff"></rect></g></g></g></g></g></svg>