<svg xmlns="http://www.w3.org/2000/svg" version="1.1" xmlns:xlink="http://www.w3.org/1999/xlink" width="19" height="18" x="0" y="0" viewBox="0 0 60 60" style="enable-background:new 0 0 512 512" xml:space="preserve" class=""><g transform="matrix(1.500000000000001,0,0,1.500000000000001,-15.000000476837226,-15.000250816345282)"><path fill="#2ba4f5" d="M45.432 48.52H14.567V11.48H41.14l4.292 4.293V48.52z" opacity="1" data-original="#2ba4f5" class=""></path><path d="M45.433 49.29H14.567a.771.771 0 0 1-.771-.77V11.48c0-.426.345-.77.771-.77H41.14c.205 0 .401.08.546.225l4.292 4.293c.145.144.226.34.226.545V48.52a.771.771 0 0 1-.771.772zm-30.094-1.543h29.322V16.093l-3.84-3.84H15.339z" fill="#000000" opacity="1" data-original="#000000" class=""></path><path fill="#ffffff" d="M19.583 11.481h18.616v8.391H19.583z" opacity="1" data-original="#ffffff" class=""></path><path d="M38.199 20.644H19.583a.771.771 0 0 1-.772-.772v-8.391c0-.427.346-.772.772-.772h18.616c.426 0 .771.345.771.772v8.391a.771.771 0 0 1-.771.772zm-17.844-1.543h17.072v-6.848H20.355z" fill="#000000" opacity="1" data-original="#000000" class=""></path><path fill="#ffffff" d="M19.39 36.559h21.22v11.96H19.39z" opacity="1" data-original="#ffffff" class=""></path><path d="M40.61 49.29H19.39a.771.771 0 0 1-.772-.77V36.558c0-.427.346-.772.772-.772h21.22c.426 0 .772.345.772.772v11.96a.771.771 0 0 1-.772.772zm-20.448-1.543h19.676V37.33H20.162z" fill="#000000" opacity="1" data-original="#000000" class=""></path><path d="M35.498 41.502H24.502a.771.771 0 1 1 0-1.543h10.996a.771.771 0 1 1 0 1.543zM35.498 45.12H24.502a.771.771 0 1 1 0-1.544h10.996a.771.771 0 1 1 0 1.543zM35.064 17.365a.771.771 0 0 1-.772-.772V14.76a.771.771 0 1 1 1.543 0v1.833a.771.771 0 0 1-.771.772z" fill="#000000" opacity="1" data-original="#000000" class=""></path></g></svg>